<?xml version="1.0" encoding="UTF-8"?>
<!DOCTYPE svg PUBLIC "-//W3C//DTD SVG 1.1//EN" "http://www.w3.org/Graphics/SVG/1.1/DTD/svg11.dtd">
<svg version="1.2" width="132.82mm" height="52.31mm" viewBox="3822 3040 13282 5231" preserveAspectRatio="xMidYMid" fill-rule="evenodd" stroke-width="28.222" stroke-linejoin="round" xmlns="http://www.w3.org/2000/svg" xmlns:ooo="http://xml.openoffice.org/svg/export" xmlns:xlink="http://www.w3.org/1999/xlink" xmlns:presentation="http://sun.com/xmlns/staroffice/presentation" xmlns:smil="http://www.w3.org/2001/SMIL20/" xmlns:anim="urn:oasis:names:tc:opendocument:xmlns:animation:1.0" xml:space="preserve">
 <defs class="ClipPathGroup">
  <clipPath id="presentation_clip_path" clipPathUnits="userSpaceOnUse">
   <rect x="3822" y="3040" width="13282" height="5231"/>
  </clipPath>
  <clipPath id="presentation_clip_path_shrink" clipPathUnits="userSpaceOnUse">
   <rect x="3835" y="3045" width="13256" height="5221"/>
  </clipPath>
 </defs>
 <defs class="TextShapeIndex">
  <g ooo:slide="id1" ooo:id-list="id3 id4 id5 id6 id7 id8 id9 id10 id11 id12 id13 id14 id15 id16 id17 id18 id19 id20 id21 id22 id23 id24 id25 id26 id27 id28 id29 id30 id31 id32 id33 id34 id35 id36 id37 id38 id39"/>
 </defs>
 <defs class="EmbeddedBulletChars">
  <g id="bullet-char-template(57356)" transform="scale(0.00048828125,-0.00048828125)">
   <path d="M 580,1141 L 1163,571 580,0 -4,571 580,1141 Z"/>
  </g>
  <g id="bullet-char-template(57354)" transform="scale(0.00048828125,-0.00048828125)">
   <path d="M 8,1128 L 1137,1128 1137,0 8,0 8,1128 Z"/>
  </g>
  <g id="bullet-char-template(10146)" transform="scale(0.00048828125,-0.00048828125)">
   <path d="M 174,0 L 602,739 174,1481 1456,739 174,0 Z M 1358,739 L 309,1346 659,739 1358,739 Z"/>
  </g>
  <g id="bullet-char-template(10132)" transform="scale(0.00048828125,-0.00048828125)">
   <path d="M 2015,739 L 1276,0 717,0 1260,543 174,543 174,936 1260,936 717,1481 1274,1481 2015,739 Z"/>
  </g>
  <g id="bullet-char-template(10007)" transform="scale(0.00048828125,-0.00048828125)">
   <path d="M 0,-2 C -7,14 -16,27 -25,37 L 356,567 C 262,823 215,952 215,954 215,979 228,992 255,992 264,992 276,990 289,987 310,991 331,999 354,1012 L 381,999 492,748 772,1049 836,1024 860,1049 C 881,1039 901,1025 922,1006 886,937 835,863 770,784 769,783 710,716 594,584 L 774,223 C 774,196 753,168 711,139 L 727,119 C 717,90 699,76 672,76 641,76 570,178 457,381 L 164,-76 C 142,-110 111,-127 72,-127 30,-127 9,-110 8,-76 1,-67 -2,-52 -2,-32 -2,-23 -1,-13 0,-2 Z"/>
  </g>
  <g id="bullet-char-template(10004)" transform="scale(0.00048828125,-0.00048828125)">
   <path d="M 285,-33 C 182,-33 111,30 74,156 52,228 41,333 41,471 41,549 55,616 82,672 116,743 169,778 240,778 293,778 328,747 346,684 L 369,508 C 377,444 397,411 428,410 L 1163,1116 C 1174,1127 1196,1133 1229,1133 1271,1133 1292,1118 1292,1087 L 1292,965 C 1292,929 1282,901 1262,881 L 442,47 C 390,-6 338,-33 285,-33 Z"/>
  </g>
  <g id="bullet-char-template(9679)" transform="scale(0.00048828125,-0.00048828125)">
   <path d="M 813,0 C 632,0 489,54 383,161 276,268 223,411 223,592 223,773 276,916 383,1023 489,1130 632,1184 813,1184 992,1184 1136,1130 1245,1023 1353,916 1407,772 1407,592 1407,412 1353,268 1245,161 1136,54 992,0 813,0 Z"/>
  </g>
  <g id="bullet-char-template(8226)" transform="scale(0.00048828125,-0.00048828125)">
   <path d="M 346,457 C 273,457 209,483 155,535 101,586 74,649 74,723 74,796 101,859 155,911 209,963 273,989 346,989 419,989 480,963 531,910 582,859 608,796 608,723 608,648 583,586 532,535 482,483 420,457 346,457 Z"/>
  </g>
  <g id="bullet-char-template(8211)" transform="scale(0.00048828125,-0.00048828125)">
   <path d="M -4,459 L 1135,459 1135,606 -4,606 -4,459 Z"/>
  </g>
  <g id="bullet-char-template(61548)" transform="scale(0.00048828125,-0.00048828125)">
   <path d="M 173,740 C 173,903 231,1043 346,1159 462,1274 601,1332 765,1332 928,1332 1067,1274 1183,1159 1299,1043 1357,903 1357,740 1357,577 1299,437 1183,322 1067,206 928,148 765,148 601,148 462,206 346,322 231,437 173,577 173,740 Z"/>
  </g>
 </defs>
 <defs class="TextEmbeddedBitmaps"/>
 <g class="SlideGroup">
  <g>
   <g id="container-id1">
    <g id="id1" class="Slide" clip-path="url(#presentation_clip_path)">
     <g class="Page">
      <g class="com.sun.star.drawing.ClosedBezierShape">
       <g id="id3">
        <rect class="BoundingBox" stroke="none" fill="none" x="3822" y="3040" width="5232" height="5232"/>
        <path fill="rgb(32,86,174)" stroke="none" d="M 9053,5655 C 9053,7099 7882,8271 6437,8271 4993,8271 3822,7099 3822,5655 3822,4211 4993,3040 6437,3040 7882,3040 9053,4211 9053,5655 Z"/>
       </g>
      </g>
      <g class="com.sun.star.drawing.ClosedBezierShape">
       <g id="id4">
        <rect class="BoundingBox" stroke="none" fill="none" x="16536" y="6110" width="5" height="2"/>
        <path fill="rgb(32,86,174)" stroke="none" d="M 16536,6110 C 16539,6110 16543,6111 16536,6110 Z"/>
       </g>
      </g>
      <g class="com.sun.star.drawing.PolyPolygonShape">
       <g id="id5">
        <rect class="BoundingBox" stroke="none" fill="none" x="16536" y="6110" width="1" height="1"/>
        <path fill="rgb(32,86,174)" stroke="none" d="M 16536,6110 L 16536,6110 Z"/>
       </g>
      </g>
      <g class="com.sun.star.drawing.ClosedBezierShape">
       <g id="id6">
        <rect class="BoundingBox" stroke="none" fill="none" x="15405" y="4071" width="1700" height="2062"/>
        <path fill="rgb(32,86,174)" stroke="none" d="M 17104,5731 L 17104,6078 17104,6132 17050,6132 16369,6132 16367,6132 C 16300,6132 16242,6130 16193,6127 16182,6126 16174,6126 16169,6125 16130,6122 16093,6117 16061,6111 L 16060,6111 16059,6111 C 16024,6104 15990,6095 15957,6084 15924,6074 15892,6061 15862,6047 15707,5972 15590,5850 15512,5679 L 15511,5679 C 15476,5601 15450,5514 15432,5418 15415,5323 15406,5219 15406,5107 L 15406,5106 C 15407,4971 15420,4848 15446,4737 15450,4721 15455,4703 15461,4683 15487,4593 15523,4511 15568,4438 L 15568,4437 C 15579,4420 15591,4403 15603,4386 15615,4369 15628,4353 15641,4339 15709,4260 15791,4200 15887,4158 L 15888,4158 C 15906,4150 15926,4142 15946,4135 15967,4128 15987,4121 16007,4116 16116,4087 16243,4072 16389,4072 L 17050,4072 17104,4072 17104,4126 17104,4473 17104,4527 17050,4527 16436,4527 C 16267,4527 16144,4571 16067,4658 16037,4692 16014,4741 15998,4807 15981,4878 15973,4964 15973,5068 15973,5208 15986,5322 16013,5411 16037,5495 16073,5556 16121,5595 16154,5621 16197,5641 16250,5655 16307,5669 16374,5677 16452,5677 L 17050,5677 17104,5677 17104,5731 Z"/>
       </g>
      </g>
      <g class="com.sun.star.drawing.ClosedBezierShape">
       <g id="id7">
        <rect class="BoundingBox" stroke="none" fill="none" x="14449" y="5497" width="1" height="3"/>
        <path fill="rgb(32,86,174)" stroke="none" d="M 14449,5497 L 14449,5498 C 14449,5499 14449,5498 14449,5497 Z"/>
       </g>
      </g>
      <g class="com.sun.star.drawing.ClosedBezierShape">
       <g id="id8">
        <rect class="BoundingBox" stroke="none" fill="none" x="13668" y="4071" width="1815" height="2078"/>
        <path fill="rgb(32,86,174)" stroke="none" d="M 14191,4126 L 14191,5296 14191,5297 C 14191,5343 14193,5382 14197,5416 14197,5424 14198,5429 14198,5432 14202,5457 14206,5479 14211,5498 L 14212,5499 14212,5500 C 14213,5504 14215,5510 14218,5517 14220,5523 14222,5529 14225,5534 14237,5562 14254,5586 14276,5607 14312,5642 14354,5668 14404,5685 14455,5703 14515,5712 14582,5712 14626,5712 14666,5709 14703,5702 14709,5700 14715,5699 14720,5698 14750,5691 14778,5682 14803,5670 L 14804,5670 C 14833,5657 14858,5641 14878,5623 14897,5606 14911,5588 14922,5567 L 14922,5566 C 14933,5544 14942,5511 14948,5468 14954,5422 14957,5364 14957,5296 L 14957,4126 14957,4072 15012,4072 15427,4072 15481,4072 15481,4126 15481,5276 C 15481,5354 15477,5425 15469,5490 15461,5556 15448,5615 15431,5668 L 15431,5669 C 15427,5682 15422,5697 15416,5712 15410,5727 15404,5741 15398,5754 15364,5824 15320,5883 15266,5931 15184,6004 15084,6058 14967,6094 14852,6130 14721,6148 14574,6148 14418,6148 14283,6130 14168,6096 14150,6090 14132,6084 14112,6077 14019,6042 13940,5994 13877,5934 13837,5896 13804,5856 13777,5814 13749,5772 13728,5727 13713,5680 13697,5634 13686,5580 13679,5517 13672,5455 13668,5384 13668,5306 L 13668,4126 13668,4072 13722,4072 14137,4072 14191,4072 14191,4126 Z"/>
       </g>
      </g>
      <g class="com.sun.star.drawing.ClosedBezierShape">
       <g id="id9">
        <rect class="BoundingBox" stroke="none" fill="none" x="11793" y="4071" width="1679" height="2062"/>
        <path fill="rgb(32,86,174)" stroke="none" d="M 13471,4126 L 13471,4473 13471,4527 13417,4527 12876,4527 C 12739,4527 12641,4536 12581,4554 12573,4556 12566,4559 12559,4562 12551,4565 12544,4568 12538,4571 12504,4589 12473,4615 12447,4649 12435,4665 12424,4682 12416,4698 12408,4714 12402,4730 12398,4746 12393,4764 12388,4788 12384,4818 12382,4835 12380,4854 12378,4878 L 13417,4878 13471,4878 13471,4932 13471,5280 13471,5334 13417,5334 12379,5334 C 12379,5337 12380,5339 12380,5341 12383,5361 12387,5380 12391,5398 12413,5486 12449,5550 12499,5590 12535,5618 12585,5639 12649,5654 12716,5669 12797,5677 12894,5677 L 13417,5677 13471,5677 13471,5731 13471,6078 13471,6132 13417,6132 12876,6132 12874,6132 C 12798,6132 12728,6130 12664,6125 12651,6124 12640,6123 12632,6123 12581,6118 12529,6112 12479,6104 12385,6089 12300,6061 12225,6019 12149,5978 12083,5923 12027,5856 L 12027,5855 C 11948,5760 11889,5648 11850,5520 11812,5393 11793,5250 11793,5091 11793,4734 11903,4457 12124,4257 12133,4249 12144,4240 12157,4230 12169,4220 12180,4212 12190,4204 12248,4163 12309,4132 12372,4112 12416,4099 12467,4088 12525,4082 12582,4075 12646,4072 12716,4072 L 13417,4072 13471,4072 13471,4126 Z"/>
       </g>
      </g>
      <g class="com.sun.star.drawing.PolyPolygonShape">
       <g id="id10">
        <rect class="BoundingBox" stroke="none" fill="none" x="9525" y="4071" width="2321" height="2062"/>
        <path fill="rgb(32,86,174)" stroke="none" d="M 10237,4110 L 10675,5476 11134,4109 11146,4072 11185,4072 11791,4072 11845,4072 11845,4126 11845,6078 11845,6132 11791,6132 11395,6132 11341,6132 11341,6078 11341,4931 10936,6096 10923,6132 10885,6132 10457,6132 10417,6132 10405,6095 10029,4949 10029,6078 10029,6132 9975,6132 9579,6132 9525,6132 9525,6078 9525,4126 9525,4072 9579,4072 10186,4072 10225,4072 10237,4110 Z"/>
       </g>
      </g>
      <g class="com.sun.star.drawing.ClosedBezierShape">
       <g id="id11">
        <rect class="BoundingBox" stroke="none" fill="none" x="9526" y="6413" width="655" height="660"/>
        <path fill="rgb(112,109,110)" stroke="none" d="M 9817,7072 L 9594,6488 9591,6488 C 9595,6534 9597,6589 9597,6652 L 9597,7072 9526,7072 9526,6413 9641,6413 9850,6956 9853,6956 10063,6413 10179,6413 10179,7072 10102,7072 10102,6647 C 10102,6598 10104,6545 10108,6488 L 10105,6488 9879,7072 9817,7072 Z"/>
       </g>
      </g>
      <g class="com.sun.star.drawing.ClosedBezierShape">
       <g id="id12">
        <rect class="BoundingBox" stroke="none" fill="none" x="10340" y="6394" width="92" height="679"/>
        <path fill="rgb(112,109,110)" stroke="none" d="M 10421,7072 L 10347,7072 10347,6579 10421,6579 10421,7072 Z M 10340,6445 C 10340,6428 10345,6414 10353,6406 10361,6398 10372,6394 10384,6394 10396,6394 10407,6399 10415,6407 10424,6415 10430,6428 10430,6445 10430,6462 10424,6474 10415,6482 10407,6491 10396,6495 10384,6495 10372,6495 10361,6491 10353,6482 10345,6474 10340,6462 10340,6445 Z"/>
       </g>
      </g>
      <g class="com.sun.star.drawing.ClosedBezierShape">
       <g id="id13">
        <rect class="BoundingBox" stroke="none" fill="none" x="10548" y="6568" width="352" height="513"/>
        <path fill="rgb(112,109,110)" stroke="none" d="M 10899,6937 C 10899,6983 10882,7018 10847,7043 10813,7068 10765,7080 10703,7080 10637,7080 10586,7070 10550,7049 L 10550,6980 C 10573,6992 10599,7002 10626,7009 10654,7015 10680,7019 10705,7019 10744,7019 10774,7013 10795,7000 10816,6988 10827,6969 10827,6943 10827,6924 10818,6908 10802,6894 10785,6879 10753,6863 10704,6845 10658,6828 10625,6813 10606,6800 10586,6787 10572,6773 10562,6757 10553,6740 10548,6721 10548,6699 10548,6658 10565,6627 10597,6603 10630,6580 10676,6569 10733,6569 10786,6569 10838,6579 10888,6601 L 10862,6662 C 10812,6641 10767,6631 10727,6631 10692,6631 10665,6637 10647,6648 10628,6659 10619,6674 10619,6694 10619,6707 10623,6718 10629,6727 10636,6737 10648,6745 10663,6754 10678,6762 10707,6774 10749,6790 10808,6812 10847,6833 10868,6855 10888,6876 10899,6904 10899,6937 Z"/>
       </g>
      </g>
      <g class="com.sun.star.drawing.ClosedBezierShape">
       <g id="id14">
        <rect class="BoundingBox" stroke="none" fill="none" x="10988" y="6568" width="351" height="513"/>
        <path fill="rgb(112,109,110)" stroke="none" d="M 11338,6937 C 11338,6983 11321,7018 11287,7043 11253,7068 11205,7080 11143,7080 11078,7080 11027,7070 10989,7049 L 10989,6980 C 11014,6992 11039,7002 11066,7009 11093,7015 11120,7019 11145,7019 11184,7019 11214,7013 11235,7000 11256,6988 11266,6969 11266,6943 11266,6924 11258,6908 11241,6894 11225,6879 11192,6863 11144,6845 11098,6828 11065,6813 11046,6800 11027,6787 11012,6773 11003,6757 10992,6740 10988,6721 10988,6699 10988,6658 11005,6627 11038,6603 11070,6580 11115,6569 11172,6569 11225,6569 11277,6579 11328,6601 L 11301,6662 C 11252,6641 11207,6631 11167,6631 11131,6631 11105,6637 11087,6648 11069,6659 11060,6674 11060,6694 11060,6707 11063,6718 11070,6727 11077,6737 11087,6745 11102,6754 11117,6762 11146,6774 11189,6790 11247,6812 11287,6833 11307,6855 11328,6876 11338,6904 11338,6937 Z"/>
       </g>
      </g>
      <g class="com.sun.star.drawing.ClosedBezierShape">
       <g id="id15">
        <rect class="BoundingBox" stroke="none" fill="none" x="11422" y="6395" width="398" height="687"/>
        <path fill="rgb(112,109,110)" stroke="none" d="M 11593,7019 C 11639,7019 11677,7006 11704,6981 11730,6955 11743,6919 11743,6874 L 11743,6829 11669,6832 C 11608,6834 11566,6844 11539,6860 11513,6876 11500,6902 11500,6936 11500,6963 11508,6984 11524,6998 11541,7012 11564,7019 11593,7019 Z M 11705,6512 C 11692,6512 11679,6510 11667,6504 11655,6498 11642,6491 11630,6485 11618,6478 11606,6472 11595,6466 11585,6461 11574,6458 11564,6458 11549,6458 11537,6462 11530,6471 11522,6480 11516,6494 11512,6513 L 11468,6513 C 11472,6476 11482,6448 11500,6427 11517,6407 11539,6396 11566,6396 11580,6396 11594,6399 11607,6405 11619,6410 11632,6416 11643,6423 11656,6430 11667,6436 11678,6441 11689,6447 11699,6450 11709,6450 11723,6450 11734,6445 11742,6437 11749,6428 11755,6414 11759,6395 L 11804,6395 C 11800,6432 11789,6460 11772,6481 11755,6502 11733,6512 11705,6512 Z M 11763,7072 L 11748,7001 11744,7001 C 11720,7032 11695,7053 11671,7064 11645,7075 11615,7081 11578,7081 11529,7081 11491,7068 11463,7043 11436,7018 11422,6982 11422,6935 11422,6836 11501,6784 11661,6779 L 11745,6776 11745,6745 C 11745,6707 11737,6678 11720,6660 11704,6641 11677,6632 11639,6632 11598,6632 11552,6645 11500,6670 L 11477,6613 C 11501,6600 11528,6589 11557,6582 11586,6574 11615,6570 11644,6570 11704,6570 11747,6583 11776,6610 11804,6636 11818,6677 11818,6735 L 11818,7072 11763,7072 Z"/>
       </g>
      </g>
      <g class="com.sun.star.drawing.ClosedBezierShape">
       <g id="id16">
        <rect class="BoundingBox" stroke="none" fill="none" x="11943" y="6568" width="455" height="513"/>
        <path fill="rgb(112,109,110)" stroke="none" d="M 12022,6824 C 12022,6888 12034,6936 12060,6968 12085,7001 12122,7018 12171,7018 12220,7018 12257,7002 12282,6969 12307,6936 12320,6888 12320,6824 12320,6761 12307,6713 12282,6681 12257,6648 12219,6632 12170,6632 12121,6632 12084,6648 12059,6680 12034,6712 12022,6760 12022,6824 Z M 12397,6824 C 12397,6905 12377,6968 12337,7013 12296,7058 12240,7080 12169,7080 12125,7080 12086,7070 12051,7049 12017,7029 11991,6999 11971,6960 11953,6922 11943,6875 11943,6824 11943,6743 11963,6681 12005,6636 12045,6591 12101,6569 12172,6569 12241,6569 12296,6591 12336,6637 12377,6683 12397,6745 12397,6824 Z"/>
       </g>
      </g>
      <g class="com.sun.star.drawing.PolyPolygonShape">
       <g id="id17">
        <rect class="BoundingBox" stroke="none" fill="none" x="12778" y="6413" width="368" height="660"/>
        <path fill="rgb(112,109,110)" stroke="none" d="M 13145,7072 L 12778,7072 12778,6413 13145,6413 13145,6481 12854,6481 12854,6693 13128,6693 13128,6760 12854,6760 12854,7003 13145,7003 13145,7072 Z"/>
       </g>
      </g>
      <g class="com.sun.star.drawing.ClosedBezierShape">
       <g id="id18">
        <rect class="BoundingBox" stroke="none" fill="none" x="13200" y="6578" width="463" height="495"/>
        <path fill="rgb(112,109,110)" stroke="none" d="M 13387,7072 L 13200,6578 13280,6578 13386,6871 C 13410,6939 13424,6984 13428,7004 L 13432,7004 C 13435,6988 13445,6955 13463,6905 13481,6855 13520,6746 13581,6578 L 13662,6578 13474,7072 13387,7072 Z"/>
       </g>
      </g>
      <g class="com.sun.star.drawing.ClosedBezierShape">
       <g id="id19">
        <rect class="BoundingBox" stroke="none" fill="none" x="13703" y="6569" width="398" height="513"/>
        <path fill="rgb(112,109,110)" stroke="none" d="M 13875,7019 C 13921,7019 13958,7006 13984,6981 14011,6955 14025,6919 14025,6873 L 14025,6828 13950,6831 C 13890,6833 13847,6843 13821,6859 13795,6875 13782,6902 13782,6936 13782,6963 13790,6984 13806,6998 13823,7012 13845,7019 13875,7019 Z M 14045,7072 L 14030,7001 14026,7001 C 14001,7032 13976,7053 13952,7064 13927,7075 13897,7081 13860,7081 13811,7081 13773,7068 13745,7043 13717,7018 13703,6982 13703,6935 13703,6835 13783,6783 13942,6778 L 14027,6775 14027,6744 C 14027,6706 14018,6677 14001,6659 13984,6640 13958,6631 13921,6631 13880,6631 13834,6644 13782,6669 L 13759,6612 C 13783,6599 13810,6588 13839,6581 13868,6573 13897,6569 13926,6569 13984,6569 14029,6582 14057,6609 14086,6635 14100,6676 14100,6734 L 14100,7072 14045,7072 Z"/>
       </g>
      </g>
      <g class="com.sun.star.drawing.ClosedBezierShape">
       <g id="id20">
        <rect class="BoundingBox" stroke="none" fill="none" x="14253" y="6568" width="415" height="505"/>
        <path fill="rgb(112,109,110)" stroke="none" d="M 14590,7072 L 14590,6752 C 14590,6711 14581,6681 14563,6662 14544,6642 14516,6632 14477,6632 14425,6632 14387,6646 14363,6674 14339,6702 14327,6748 14327,6813 L 14327,7072 14253,7072 14253,6578 14313,6578 14326,6645 14329,6645 C 14344,6621 14366,6602 14393,6589 14421,6575 14452,6569 14486,6569 14545,6569 14590,6583 14620,6611 14651,6640 14666,6686 14666,6749 L 14666,7072 14590,7072 Z"/>
       </g>
      </g>
      <g class="com.sun.star.drawing.ClosedBezierShape">
       <g id="id21">
        <rect class="BoundingBox" stroke="none" fill="none" x="14756" y="6569" width="468" height="725"/>
        <path fill="rgb(112,109,110)" stroke="none" d="M 14869,6735 C 14869,6770 14879,6796 14898,6814 14918,6831 14945,6840 14980,6840 15052,6840 15089,6805 15089,6734 15089,6660 15052,6623 14978,6623 14943,6623 14916,6632 14897,6651 14878,6670 14869,6698 14869,6735 Z M 14828,7154 C 14828,7181 14840,7201 14862,7215 14885,7229 14917,7236 14959,7236 15022,7236 15068,7226 15098,7208 15129,7189 15144,7163 15144,7131 15144,7105 15136,7086 15120,7076 15102,7065 15071,7060 15025,7060 L 14936,7060 C 14902,7060 14876,7068 14857,7085 14838,7101 14828,7124 14828,7154 Z M 15223,6578 L 15223,6625 15131,6636 C 15140,6646 15147,6660 15154,6677 15160,6694 15164,6713 15164,6734 15164,6782 15147,6821 15114,6850 15080,6879 15035,6894 14977,6894 14963,6894 14949,6893 14936,6890 14904,6907 14888,6928 14888,6954 14888,6967 14894,6977 14905,6984 14916,6990 14935,6993 14962,6993 L 15049,6993 C 15103,6993 15145,7004 15173,7027 15202,7049 15216,7082 15216,7125 15216,7180 15194,7221 15151,7250 15106,7278 15042,7293 14958,7293 14893,7293 14844,7281 14809,7257 14774,7233 14756,7199 14756,7155 14756,7125 14766,7099 14785,7077 14804,7055 14831,7041 14866,7033 14854,7027 14843,7018 14834,7006 14826,6994 14822,6980 14822,6964 14822,6946 14826,6931 14836,6917 14846,6904 14861,6891 14881,6878 14856,6867 14835,6849 14819,6824 14803,6798 14795,6770 14795,6737 14795,6683 14811,6642 14844,6612 14876,6583 14922,6569 14981,6569 15007,6569 15030,6572 15051,6578 L 15223,6578 Z"/>
       </g>
      </g>
      <g class="com.sun.star.drawing.ClosedBezierShape">
       <g id="id22">
        <rect class="BoundingBox" stroke="none" fill="none" x="15294" y="6365" width="420" height="716"/>
        <path fill="rgb(112,109,110)" stroke="none" d="M 15455,6501 C 15470,6482 15485,6460 15502,6434 15519,6407 15532,6384 15541,6365 L 15633,6365 15633,6374 C 15620,6394 15599,6418 15573,6446 15547,6475 15525,6497 15505,6512 L 15455,6512 15455,6501 Z M 15511,6631 C 15471,6631 15440,6644 15416,6670 15393,6696 15379,6731 15374,6777 L 15633,6777 C 15633,6730 15623,6694 15602,6669 15580,6644 15550,6631 15511,6631 Z M 15531,7080 C 15458,7080 15401,7058 15358,7014 15316,6970 15295,6908 15295,6829 15295,6749 15315,6685 15354,6639 15393,6592 15446,6569 15512,6569 15573,6569 15623,6589 15659,6629 15695,6670 15713,6724 15713,6791 L 15713,6839 15373,6839 C 15374,6896 15389,6940 15416,6970 15444,7000 15483,7015 15534,7015 15587,7015 15640,7004 15692,6982 L 15692,7049 C 15666,7060 15641,7068 15617,7073 15593,7078 15564,7080 15531,7080 Z"/>
       </g>
      </g>
      <g class="com.sun.star.drawing.PolyPolygonShape">
       <g id="id23">
        <rect class="BoundingBox" stroke="none" fill="none" x="15840" y="6371" width="77" height="702"/>
        <path fill="rgb(112,109,110)" stroke="none" d="M 15915,7072 L 15840,7072 15840,6371 15915,6371 15915,7072 Z"/>
       </g>
      </g>
      <g class="com.sun.star.drawing.ClosedBezierShape">
       <g id="id24">
        <rect class="BoundingBox" stroke="none" fill="none" x="16066" y="6394" width="90" height="679"/>
        <path fill="rgb(112,109,110)" stroke="none" d="M 16147,7072 L 16073,7072 16073,6579 16147,6579 16147,7072 Z M 16066,6445 C 16066,6428 16070,6414 16079,6406 16087,6398 16098,6394 16110,6394 16122,6394 16133,6399 16141,6407 16151,6415 16155,6428 16155,6445 16155,6462 16151,6474 16141,6482 16133,6491 16122,6495 16110,6495 16098,6495 16087,6491 16079,6482 16070,6474 16066,6462 16066,6445 Z"/>
       </g>
      </g>
      <g class="com.sun.star.drawing.ClosedBezierShape">
       <g id="id25">
        <rect class="BoundingBox" stroke="none" fill="none" x="16278" y="6568" width="358" height="513"/>
        <path fill="rgb(112,109,110)" stroke="none" d="M 16503,7080 C 16431,7080 16376,7059 16337,7015 16298,6971 16278,6909 16278,6827 16278,6745 16298,6681 16338,6636 16377,6591 16434,6569 16508,6569 16531,6569 16556,6571 16580,6576 16603,6581 16622,6587 16635,6594 L 16612,6658 C 16596,6651 16578,6646 16558,6641 16538,6637 16521,6635 16506,6635 16406,6635 16355,6699 16355,6826 16355,6888 16368,6934 16392,6967 16417,6999 16453,7015 16501,7015 16542,7015 16585,7006 16628,6989 L 16628,7055 C 16595,7072 16553,7080 16503,7080 Z"/>
       </g>
      </g>
      <g class="com.sun.star.drawing.ClosedBezierShape">
       <g id="id26">
        <rect class="BoundingBox" stroke="none" fill="none" x="16707" y="6569" width="398" height="513"/>
        <path fill="rgb(112,109,110)" stroke="none" d="M 16880,7019 C 16926,7019 16963,7006 16989,6981 17016,6955 17029,6919 17029,6873 L 17029,6828 16954,6831 C 16895,6833 16852,6843 16826,6859 16800,6875 16785,6902 16785,6936 16785,6963 16795,6984 16811,6998 16827,7012 16850,7019 16880,7019 Z M 17048,7072 L 17033,7001 17030,7001 C 17005,7032 16981,7053 16956,7064 16932,7075 16901,7081 16865,7081 16816,7081 16777,7068 16749,7043 16721,7018 16707,6982 16707,6935 16707,6835 16787,6783 16947,6778 L 17031,6775 17031,6744 C 17031,6706 17022,6677 17006,6659 16989,6640 16963,6631 16926,6631 16885,6631 16838,6644 16785,6669 L 16763,6612 C 16787,6599 16814,6588 16843,6581 16872,6573 16901,6569 16930,6569 16989,6569 17033,6582 17061,6609 17089,6635 17104,6676 17104,6734 L 17104,7072 17048,7072 Z"/>
       </g>
      </g>
      <g class="com.sun.star.drawing.ClosedBezierShape">
       <g id="id27">
        <rect class="BoundingBox" stroke="none" fill="none" x="9519" y="7330" width="506" height="669"/>
        <path fill="rgb(112,109,110)" stroke="none" d="M 10024,7330 L 10024,7757 C 10024,7832 10001,7891 9956,7933 9911,7976 9848,7998 9768,7998 9689,7998 9628,7976 9584,7933 9541,7890 9519,7830 9519,7755 L 9519,7330 9596,7330 9596,7760 C 9596,7815 9611,7857 9641,7887 9671,7916 9715,7931 9773,7931 9830,7931 9872,7916 9902,7886 9932,7857 9947,7815 9947,7759 L 9947,7330 10024,7330 Z"/>
       </g>
      </g>
      <g class="com.sun.star.drawing.ClosedBezierShape">
       <g id="id28">
        <rect class="BoundingBox" stroke="none" fill="none" x="10186" y="7486" width="415" height="504"/>
        <path fill="rgb(112,109,110)" stroke="none" d="M 10524,7989 L 10524,7669 C 10524,7629 10515,7599 10496,7579 10477,7559 10449,7549 10410,7549 10358,7549 10320,7563 10296,7591 10272,7619 10260,7665 10260,7729 L 10260,7989 10186,7989 10186,7495 10246,7495 10259,7562 10262,7562 C 10277,7538 10299,7519 10326,7506 10354,7492 10385,7486 10419,7486 10478,7486 10524,7500 10554,7529 10584,7557 10599,7603 10599,7666 L 10599,7989 10524,7989 Z"/>
       </g>
      </g>
      <g class="com.sun.star.drawing.ClosedBezierShape">
       <g id="id29">
        <rect class="BoundingBox" stroke="none" fill="none" x="10745" y="7312" width="90" height="678"/>
        <path fill="rgb(112,109,110)" stroke="none" d="M 10827,7989 L 10751,7989 10751,7495 10827,7495 10827,7989 Z M 10745,7361 C 10745,7344 10749,7332 10757,7324 10766,7316 10776,7312 10790,7312 10802,7312 10812,7316 10821,7324 10830,7332 10834,7344 10834,7361 10834,7378 10830,7390 10821,7399 10812,7407 10802,7411 10790,7411 10776,7411 10766,7407 10757,7399 10749,7390 10745,7378 10745,7361 Z"/>
       </g>
      </g>
      <g class="com.sun.star.drawing.ClosedBezierShape">
       <g id="id30">
        <rect class="BoundingBox" stroke="none" fill="none" x="10947" y="7312" width="398" height="687"/>
        <path fill="rgb(112,109,110)" stroke="none" d="M 11119,7936 C 11165,7936 11201,7923 11228,7898 11255,7872 11269,7836 11269,7790 L 11269,7745 11193,7748 C 11134,7751 11091,7760 11065,7776 11039,7792 11025,7818 11025,7852 11025,7880 11034,7901 11050,7915 11066,7929 11089,7936 11119,7936 Z M 11229,7429 C 11216,7429 11204,7426 11191,7420 11179,7415 11167,7409 11155,7402 11143,7395 11132,7389 11121,7383 11110,7378 11099,7375 11089,7375 11074,7375 11063,7380 11055,7389 11048,7398 11042,7411 11038,7430 L 10993,7430 C 10997,7393 11008,7365 11025,7344 11042,7324 11065,7313 11092,7313 11106,7313 11119,7316 11132,7322 11145,7327 11157,7334 11169,7340 11181,7347 11192,7353 11203,7359 11213,7364 11224,7367 11233,7367 11248,7367 11260,7363 11267,7354 11274,7345 11280,7331 11285,7313 L 11329,7313 C 11325,7349 11315,7377 11298,7398 11281,7418 11257,7429 11229,7429 Z M 11288,7989 L 11273,7919 11270,7919 C 11244,7949 11220,7970 11195,7981 11171,7992 11140,7998 11104,7998 11055,7998 11016,7985 10989,7960 10961,7935 10947,7899 10947,7851 10947,7752 11027,7700 11186,7695 L 11271,7692 11271,7662 C 11271,7623 11262,7594 11245,7576 11228,7557 11201,7548 11165,7548 11124,7548 11077,7561 11025,7586 L 11002,7529 C 11027,7516 11053,7505 11082,7498 11111,7490 11140,7487 11169,7487 11228,7487 11273,7500 11301,7526 11329,7552 11344,7594 11344,7651 L 11344,7989 11288,7989 Z"/>
       </g>
      </g>
      <g class="com.sun.star.drawing.ClosedBezierShape">
       <g id="id31">
        <rect class="BoundingBox" stroke="none" fill="none" x="11469" y="7486" width="456" height="513"/>
        <path fill="rgb(112,109,110)" stroke="none" d="M 11547,7741 C 11547,7804 11560,7852 11585,7885 11610,7919 11647,7935 11696,7935 11745,7935 11782,7919 11807,7885 11833,7852 11845,7804 11845,7741 11845,7678 11833,7631 11807,7598 11782,7565 11745,7549 11695,7549 11646,7549 11609,7565 11585,7597 11560,7629 11547,7677 11547,7741 Z M 11923,7741 C 11923,7821 11903,7884 11862,7930 11822,7975 11766,7998 11694,7998 11650,7998 11611,7987 11577,7967 11543,7946 11515,7916 11497,7877 11478,7838 11469,7793 11469,7741 11469,7660 11489,7598 11530,7553 11570,7508 11626,7486 11698,7486 11766,7486 11821,7509 11862,7555 11903,7600 11923,7663 11923,7741 Z"/>
       </g>
      </g>
      <g class="com.sun.star.drawing.ClosedBezierShape">
       <g id="id32">
        <rect class="BoundingBox" stroke="none" fill="none" x="12268" y="7321" width="501" height="679"/>
        <path fill="rgb(112,109,110)" stroke="none" d="M 12585,7389 C 12513,7389 12456,7413 12414,7461 12372,7509 12351,7575 12351,7659 12351,7745 12371,7813 12411,7859 12452,7906 12509,7930 12584,7930 12630,7930 12683,7922 12742,7905 L 12742,7972 C 12696,7989 12639,7998 12572,7998 12475,7998 12401,7968 12348,7910 12295,7851 12269,7766 12269,7658 12269,7590 12282,7531 12307,7480 12332,7429 12369,7390 12417,7362 12465,7334 12521,7321 12586,7321 12655,7321 12716,7333 12768,7358 L 12735,7424 C 12685,7401 12635,7389 12585,7389 Z"/>
       </g>
      </g>
      <g class="com.sun.star.drawing.ClosedBezierShape">
       <g id="id33">
        <rect class="BoundingBox" stroke="none" fill="none" x="12873" y="7486" width="286" height="504"/>
        <path fill="rgb(112,109,110)" stroke="none" d="M 13099,7486 C 13121,7486 13141,7488 13158,7491 L 13148,7560 C 13127,7556 13109,7554 13094,7554 13054,7554 13020,7570 12991,7602 12963,7635 12949,7675 12949,7723 L 12949,7989 12873,7989 12873,7495 12936,7495 12944,7586 12948,7586 C 12966,7554 12988,7529 13014,7512 13040,7494 13068,7486 13099,7486 Z"/>
       </g>
      </g>
      <g class="com.sun.star.drawing.ClosedBezierShape">
       <g id="id34">
        <rect class="BoundingBox" stroke="none" fill="none" x="13242" y="7312" width="91" height="678"/>
        <path fill="rgb(112,109,110)" stroke="none" d="M 13325,7989 L 13250,7989 13250,7495 13325,7495 13325,7989 Z M 13243,7361 C 13243,7344 13248,7332 13257,7324 13265,7316 13275,7312 13288,7312 13300,7312 13310,7316 13319,7324 13328,7332 13332,7344 13332,7361 13332,7378 13328,7390 13319,7399 13310,7407 13300,7411 13288,7411 13275,7411 13265,7407 13257,7399 13248,7390 13243,7378 13243,7361 Z"/>
       </g>
      </g>
      <g class="com.sun.star.drawing.ClosedBezierShape">
       <g id="id35">
        <rect class="BoundingBox" stroke="none" fill="none" x="13451" y="7486" width="351" height="513"/>
        <path fill="rgb(112,109,110)" stroke="none" d="M 13801,7853 C 13801,7899 13783,7936 13749,7960 13715,7985 13667,7998 13605,7998 13540,7998 13489,7987 13452,7967 L 13452,7896 C 13476,7909 13501,7919 13528,7926 13555,7933 13582,7936 13607,7936 13646,7936 13676,7930 13697,7917 13718,7904 13728,7885 13728,7860 13728,7840 13720,7824 13703,7810 13687,7797 13654,7781 13606,7762 13560,7745 13527,7730 13508,7717 13489,7704 13474,7690 13465,7674 13455,7658 13451,7638 13451,7616 13451,7576 13467,7544 13500,7521 13532,7497 13577,7486 13634,7486 13687,7486 13739,7497 13791,7518 L 13763,7579 C 13714,7558 13669,7548 13629,7548 13593,7548 13567,7554 13549,7565 13531,7576 13522,7591 13522,7611 13522,7624 13525,7635 13532,7645 13539,7654 13550,7663 13564,7671 13579,7679 13608,7692 13651,7707 13709,7729 13749,7750 13769,7772 13791,7793 13801,7821 13801,7853 Z"/>
       </g>
      </g>
      <g class="com.sun.star.drawing.ClosedBezierShape">
       <g id="id36">
        <rect class="BoundingBox" stroke="none" fill="none" x="13856" y="7380" width="294" height="620"/>
        <path fill="rgb(112,109,110)" stroke="none" d="M 14081,7936 C 14094,7936 14107,7935 14120,7933 14132,7931 14142,7929 14149,7927 L 14149,7984 C 14141,7988 14129,7991 14113,7994 14097,7996 14083,7998 14070,7998 13975,7998 13927,7947 13927,7847 L 13927,7553 13856,7553 13856,7517 13927,7486 13959,7380 14002,7380 14002,7495 14146,7495 14146,7553 14002,7553 14002,7844 C 14002,7874 14009,7896 14023,7912 14037,7928 14056,7936 14081,7936 Z"/>
       </g>
      </g>
      <g class="com.sun.star.drawing.ClosedBezierShape">
       <g id="id37">
        <rect class="BoundingBox" stroke="none" fill="none" x="14210" y="7312" width="398" height="687"/>
        <path fill="rgb(112,109,110)" stroke="none" d="M 14381,7936 C 14429,7936 14465,7923 14492,7898 14518,7872 14532,7836 14532,7790 L 14532,7745 14457,7748 C 14397,7751 14354,7760 14328,7776 14301,7792 14288,7818 14288,7852 14288,7880 14296,7901 14313,7915 14329,7929 14352,7936 14381,7936 Z M 14493,7429 C 14480,7429 14467,7426 14455,7420 14443,7415 14431,7409 14419,7402 14406,7395 14395,7389 14384,7383 14373,7378 14362,7375 14352,7375 14337,7375 14326,7380 14318,7389 14310,7398 14305,7411 14300,7430 L 14256,7430 C 14260,7393 14271,7365 14288,7344 14305,7324 14327,7313 14355,7313 14369,7313 14382,7316 14395,7322 14408,7327 14421,7334 14433,7340 14444,7347 14456,7353 14466,7359 14477,7364 14487,7367 14497,7367 14512,7367 14523,7363 14530,7354 14537,7345 14543,7331 14547,7313 L 14592,7313 C 14588,7349 14578,7377 14561,7398 14544,7418 14521,7429 14493,7429 Z M 14551,7989 L 14536,7919 14533,7919 C 14508,7949 14483,7970 14459,7981 14435,7992 14403,7998 14366,7998 14318,7998 14279,7985 14252,7960 14224,7935 14210,7899 14210,7851 14210,7752 14290,7700 14450,7695 L 14533,7692 14533,7662 C 14533,7623 14525,7594 14508,7576 14492,7557 14465,7548 14429,7548 14387,7548 14340,7561 14288,7586 L 14265,7529 C 14290,7516 14316,7505 14345,7498 14374,7490 14403,7487 14433,7487 14492,7487 14535,7500 14564,7526 14592,7552 14606,7594 14606,7651 L 14606,7989 14551,7989 Z"/>
       </g>
      </g>
      <g class="com.sun.star.drawing.ClosedBezierShape">
       <g id="id38">
        <rect class="BoundingBox" stroke="none" fill="none" x="3844" y="3391" width="3765" height="4881"/>
        <path fill="rgb(255,255,255)" stroke="none" d="M 5739,5268 C 6114,6213 6640,7251 7355,8106 7070,8213 6761,8271 6438,8271 6273,8271 6112,8256 5956,8227 5654,7727 5184,6873 4852,5918 4582,6135 4304,6379 4018,6650 3933,6443 3873,6223 3844,5993 4040,5714 4293,5396 4607,5079 4520,4701 4466,4317 4460,3943 4650,3724 4875,3537 5127,3391 5200,3671 5296,4010 5419,4384 5901,4037 6472,3732 7138,3536 7333,3742 7509,4006 7608,4335 7089,4510 6456,4797 5739,5268 Z"/>
       </g>
      </g>
      <g class="com.sun.star.drawing.ClosedBezierShape">
       <g id="id39">
        <rect class="BoundingBox" stroke="none" fill="none" x="3822" y="3207" width="5232" height="4761"/>
        <path fill="rgb(153,222,249)" stroke="none" d="M 4144,4462 L 4128,4427 C 4100,4479 4074,4532 4050,4585 L 4083,4591 4144,4462 Z M 4135,5545 L 4226,5368 4307,5259 4270,5157 4184,5316 4106,5362 4155,5164 4274,5031 4403,4893 4310,4764 4215,4697 4137,4744 4009,4682 4008,4681 4007,4689 3975,4855 3996,5151 3923,5148 3891,5090 3884,5089 C 3843,5271 3822,5461 3822,5655 3822,5770 3829,5882 3844,5993 3932,5868 4033,5734 4145,5596 L 4135,5545 Z M 3861,6108 C 3861,6107 3861,6106 3861,6105 3861,6106 3861,6107 3861,6108 Z M 8791,4514 L 8742,4469 8779,4490 C 8764,4460 8749,4431 8733,4402 L 8732,4406 8675,4407 8612,4503 8492,4539 8388,4528 8322,4559 8299,4613 8328,4677 8318,4734 8167,4720 8135,4666 7996,4669 7933,4647 7952,4572 7910,4501 7903,4441 7892,4477 7856,4447 7828,4484 7581,4563 7505,4660 7419,4655 7380,4640 7356,4627 7339,4732 7285,4781 7256,4903 7274,4993 7195,5066 7142,5149 7097,5390 7144,5517 7182,5670 7158,5742 7208,5859 7406,6045 7470,6143 7710,6281 7847,6230 7935,6256 8163,6141 8252,6190 8305,6226 8376,6174 8479,6226 8497,6401 8632,6497 8747,6592 8774,6657 8826,6722 C 8972,6396 9053,6035 9053,5655 9053,5246 8959,4859 8791,4514 Z M 5034,6582 L 4936,6440 4819,6479 4661,6434 4526,6453 4443,6455 4376,6602 4231,6628 4186,6500 4181,6498 C 4142,6534 4104,6570 4065,6607 L 4140,6604 4201,6676 4349,6727 4419,6655 4436,6906 4441,7088 4638,7280 4820,7357 4988,7833 C 5060,7881 5135,7926 5211,7967 L 5246,7827 5245,7720 5347,7675 5334,7436 5379,7194 5383,7179 C 5291,6991 5199,6791 5110,6583 L 5034,6582 Z M 7235,4543 L 7283,4555 7323,4543 7349,4608 7395,4571 7463,4562 7501,4498 7516,4421 7513,4368 C 7421,4401 7325,4437 7226,4477 L 7235,4543 Z M 7540,3390 L 7575,3433 7611,3362 7619,3322 C 7595,3310 7572,3298 7548,3287 L 7573,3319 7556,3366 7540,3390 Z M 7152,3552 L 7168,3483 7088,3473 7078,3491 7068,3558 C 7091,3551 7114,3543 7137,3536 7142,3541 7147,3547 7152,3552 Z M 7419,3692 L 7372,3800 7346,3793 C 7432,3919 7509,4060 7567,4217 L 7552,4162 7574,4140 7653,4143 7670,4087 7704,4038 7787,4128 7951,4217 8012,4255 8034,4334 8054,4344 8064,4256 8021,4220 8034,4180 8072,4199 8073,4177 7970,4134 7890,4101 7860,4046 7802,4016 7779,3945 7819,3929 7875,3977 7973,4040 8066,4082 8103,4173 8207,4255 8263,4322 8307,4317 8281,4243 8315,4212 8220,4139 8190,4089 8232,4112 8254,4086 8213,4053 8269,4026 8322,3969 8353,3952 8286,3922 8264,3783 C 8100,3623 7916,3485 7713,3373 L 7669,3453 7620,3429 7572,3466 7524,3423 7534,3330 7498,3264 7495,3258 7492,3262 7462,3302 7481,3396 7530,3487 7452,3554 7419,3692 Z M 8335,4097 L 8424,4203 8518,4205 8518,4138 8563,4131 C 8511,4059 8455,3989 8396,3922 L 8377,3933 8358,3999 8304,4030 8335,4097 Z M 7187,3490 L 7247,3536 7213,3620 C 7244,3657 7274,3696 7304,3736 L 7362,3715 7373,3583 7323,3581 7242,3443 7198,3376 7232,3315 7178,3295 7200,3239 7140,3282 7154,3409 7187,3490 Z M 7427,3267 L 7439,3239 C 7413,3228 7386,3217 7360,3207 L 7368,3233 7427,3267 Z"/>
       </g>
      </g>
     </g>
    </g>
   </g>
  </g>
 </g>
</svg>